<?xml version="1.0" encoding="UTF-8" standalone="no"?>
<svg
   width="64"
   height="64"
   version="1.1"
   id="svg1"
   xmlns="http://www.w3.org/2000/svg"
   xmlns:svg="http://www.w3.org/2000/svg">
  <defs
     id="defs1" />
  <g
     id="path2"
     style="fill:var(--foreground-color);">
    <path
       d="m 32,12.626953 a 2,2 0 0 0 -2,2 v 22.207031 a 2,2 0 0 0 2,2 2,2 0 0 0 2,-2 V 14.626953 a 2,2 0 0 0 -2,-2 z"
       id="path21" />
    <g
       id="g20">
      <path
         d="m 26.970672,14.88526 3.933653,-7.8673064 a 1.225,1.225 0 0 1 2.191347,0 l 3.933653,7.8673064 a 1.5141833,1.5141833 0 0 1 -1.354326,2.191347 h -7.35 A 1.5141833,1.5141833 0 0 1 26.970672,14.88526 Z"
         id="path20" />
    </g>
  </g>
  <g
     id="path3"
     style="fill:var(--foreground-color);">
    <path
       d="m 34.607422,39.824219 a 2,2 0 0 0 -1.214844,0.93164 2,2 0 0 0 0.732422,2.732422 l 19.308594,11.148438 a 2,2 0 0 0 2.730468,-0.732422 2,2 0 0 0 -0.730468,-2.732422 L 36.125,40.023437 a 2,2 0 0 0 -1.517578,-0.199218 z"
       id="path19" />
    <g
       id="g18">
      <path
         d="m 56.723375,48.418951 4.846461,7.340297 a 1.225,1.225 0 0 1 -1.095673,1.897761 L 51.694048,57.13 A 1.5141833,1.5141833 0 0 1 50.47345,54.861445 l 3.675,-6.365286 a 1.5141833,1.5141833 0 0 1 2.574925,-0.07721 z"
         id="path18" />
    </g>
  </g>
  <g
     id="path4"
     style="fill:var(--foreground-color);">
    <path
       d="M 29.392578,39.824219 A 2,2 0 0 0 27.875,40.023437 L 8.5664063,51.171875 a 2,2 0 0 0 -0.7304688,2.732422 2,2 0 0 0 2.7304685,0.732422 L 29.875,43.488281 a 2,2 0 0 0 0.732422,-2.732422 2,2 0 0 0 -1.214844,-0.93164 z"
       id="path17" />
    <g
       id="g16">
      <path
         d="M 12.305951,57.13 3.5258367,57.657009 A 1.225,1.225 0 0 1 2.4301635,55.759247 l 4.8464612,-7.340296 a 1.5141833,1.5141833 0 0 1 2.5749252,0.07721 L 13.52655,54.861446 A 1.5141833,1.5141833 0 0 1 12.305951,57.13 Z"
         id="path16" />
    </g>
  </g>
</svg>
