<?xml version="1.0" encoding="UTF-8" standalone="no"?>
<svg
   width="64"
   height="64"
   version="1.1"
   id="svg1"
   sodipodi:docname="3d-rasterizer.inkscape.svg"
   inkscape:version="1.4.4 (dcaf3e7d9e, 2026-05-05)"
   xmlns:inkscape="http://www.inkscape.org/namespaces/inkscape"
   xmlns:sodipodi="http://sodipodi.sourceforge.net/DTD/sodipodi-0.dtd"
   xmlns="http://www.w3.org/2000/svg"
   xmlns:svg="http://www.w3.org/2000/svg">
  <defs
     id="defs1" />
  <sodipodi:namedview
     id="namedview1"
     pagecolor="#505050"
     bordercolor="#ffffff"
     borderopacity="1"
     inkscape:showpageshadow="0"
     inkscape:pageopacity="0"
     inkscape:pagecheckerboard="1"
     inkscape:deskcolor="#505050"
     inkscape:zoom="2.0385059"
     inkscape:cx="-26.244712"
     inkscape:cy="37.282207"
     inkscape:window-width="1671"
     inkscape:window-height="1063"
     inkscape:window-x="0"
     inkscape:window-y="0"
     inkscape:window-maximized="1"
     inkscape:current-layer="svg1" />
  <g
     id="path2"
     style="opacity:1">
    <path
       style="baseline-shift:baseline;display:inline;overflow:visible;vector-effect:none;fill:#ffffff;stroke-linecap:round;enable-background:accumulate;stop-color:#000000;stop-opacity:1"
       d="m 32,12.626953 a 2,2 0 0 0 -2,2 v 22.207031 a 2,2 0 0 0 2,2 2,2 0 0 0 2,-2 V 14.626953 a 2,2 0 0 0 -2,-2 z"
       id="path21" />
    <g
       id="g20">
      <path
         d="m 26.970672,14.88526 3.933653,-7.8673064 a 1.225,1.225 0 0 1 2.191347,0 l 3.933653,7.8673064 a 1.5141833,1.5141833 0 0 1 -1.354326,2.191347 h -7.35 A 1.5141833,1.5141833 0 0 1 26.970672,14.88526 Z"
         style="baseline-shift:baseline;display:inline;overflow:visible;vector-effect:none;fill:#ffffff;fill-rule:evenodd;enable-background:accumulate;stop-color:#000000;stop-opacity:1"
         id="path20" />
    </g>
  </g>
  <g
     id="path3"
     style="opacity:1">
    <path
       style="baseline-shift:baseline;display:inline;overflow:visible;vector-effect:none;fill:#ffffff;stroke-linecap:round;enable-background:accumulate;stop-color:#000000;stop-opacity:1"
       d="m 34.607422,39.824219 a 2,2 0 0 0 -1.214844,0.93164 2,2 0 0 0 0.732422,2.732422 l 19.308594,11.148438 a 2,2 0 0 0 2.730468,-0.732422 2,2 0 0 0 -0.730468,-2.732422 L 36.125,40.023437 a 2,2 0 0 0 -1.517578,-0.199218 z"
       id="path19" />
    <g
       id="g18">
      <path
         d="m 56.723375,48.418951 4.846461,7.340297 a 1.225,1.225 0 0 1 -1.095673,1.897761 L 51.694048,57.13 A 1.5141833,1.5141833 0 0 1 50.47345,54.861445 l 3.675,-6.365286 a 1.5141833,1.5141833 0 0 1 2.574925,-0.07721 z"
         style="baseline-shift:baseline;display:inline;overflow:visible;vector-effect:none;fill:#ffffff;fill-rule:evenodd;enable-background:accumulate;stop-color:#000000;stop-opacity:1"
         id="path18" />
    </g>
  </g>
  <g
     id="path4"
     style="opacity:1">
    <path
       style="baseline-shift:baseline;display:inline;overflow:visible;vector-effect:none;fill:#ffffff;stroke-linecap:round;enable-background:accumulate;stop-color:#000000;stop-opacity:1"
       d="M 29.392578,39.824219 A 2,2 0 0 0 27.875,40.023437 L 8.5664063,51.171875 a 2,2 0 0 0 -0.7304688,2.732422 2,2 0 0 0 2.7304685,0.732422 L 29.875,43.488281 a 2,2 0 0 0 0.732422,-2.732422 2,2 0 0 0 -1.214844,-0.93164 z"
       id="path17" />
    <g
       id="g16">
      <path
         d="M 12.305951,57.13 3.5258367,57.657009 A 1.225,1.225 0 0 1 2.4301635,55.759247 l 4.8464612,-7.340296 a 1.5141833,1.5141833 0 0 1 2.5749252,0.07721 L 13.52655,54.861446 A 1.5141833,1.5141833 0 0 1 12.305951,57.13 Z"
         style="baseline-shift:baseline;display:inline;overflow:visible;vector-effect:none;fill:#ffffff;fill-rule:evenodd;enable-background:accumulate;stop-color:#000000;stop-opacity:1"
         id="path16" />
    </g>
  </g>
</svg>
