<svg
   width="64"
   height="64"
   version="1.1"
   xmlns="http://www.w3.org/2000/svg"
   xmlns:svg="http://www.w3.org/2000/svg">
  <path
     style="fill:var(--foreground-color);"
     d="M 31.638672,11.207434 A 24.297216,18.210836 0 0 0 7.3417969,29.418372 24.297216,18.210836 0 0 0 24.078125,46.683997 c 8.161971,7.163267 17.367188,10.992187 17.367187,10.992187 0,0 -4.066866,-5.432372 -6.708984,-10.199219 A 24.297216,18.210836 0 0 0 55.9375,29.418372 24.297216,18.210836 0 0 0 31.638672,11.207434 Z m -12.902344,9.244141 h 2.990234 c 2.724501,0 3.642579,0.7346 3.642579,3.263672 v 2.322265 c 0,2.161207 -0.987794,2.919922 -2.976563,2.919922 h -4.322266 c -1.988769,0 -2.978515,-0.758715 -2.978515,-2.919922 v -2.322265 c 0,-2.529072 0.920033,-3.263672 3.644531,-3.263672 z m 22.716797,0 h 2.988281 c 2.724501,0 3.644532,0.7346 3.644532,3.263672 v 2.322265 c 0,2.161207 -0.989747,2.919922 -2.978516,2.919922 h -4.322266 c -1.988769,0 -2.976562,-0.758715 -2.976562,-2.919922 v -2.322265 c 0,-2.529072 0.920033,-3.263672 3.644531,-3.263672 z m -10.058594,0.0918 h 3.044922 v 8.322265 h -2.34375 V 22.543372 L 29.025391,24.510169 27.865234,22.8422 Z m -12.347656,1.976562 c -1.195561,0 -1.470703,0.42688 -1.470703,1.289063 v 1.792968 c 0,0.862185 0.275142,1.28711 1.470703,1.28711 h 2.369141 c 1.195559,0 1.470703,-0.424925 1.470703,-1.28711 v -1.792968 c 0,-0.862183 -0.275144,-1.289063 -1.470703,-1.289063 z m 22.716797,0 c -1.195561,0 -1.472656,0.42688 -1.472656,1.289063 v 1.792968 c 0,0.862185 0.277095,1.28711 1.472656,1.28711 h 2.367187 c 1.195561,0 1.470703,-0.424925 1.470703,-1.28711 v -1.792968 c 10e-7,-0.862183 -0.275142,-1.289063 -1.470703,-1.289063 z M 30.09375,30.451575 h 2.990234 c 2.7245,0 3.644532,0.7346 3.644532,3.263672 v 2.322265 c 0,2.161206 -0.989746,2.919922 -2.978516,2.919922 h -4.322266 c -1.988769,0 -2.976562,-0.758716 -2.976562,-2.919922 v -2.322265 c 0,-2.529072 0.918079,-3.263672 3.642578,-3.263672 z m -10.058594,0.0918 h 3.046875 v 8.322265 h -2.345703 v -6.322265 l -3.068359,1.966797 -1.16211,-1.667969 z m 22.716797,0 h 3.046875 v 8.322265 H 43.453125 V 32.543372 L 40.382812,34.510169 39.222656,32.8422 Z m -12.347656,1.976562 c -1.195561,0 -1.470703,0.42688 -1.470703,1.289063 v 1.792968 c 0,0.862185 0.275142,1.28711 1.470703,1.28711 h 2.369141 c 1.195559,0 1.470703,-0.424925 1.470703,-1.28711 v -1.792968 c 0,-0.862183 -0.275144,-1.289063 -1.470703,-1.289063 z" />
</svg>
