<svg
   width="64"
   height="64"
   version="1.1"
   xmlns="http://www.w3.org/2000/svg"
   xmlns:svg="http://www.w3.org/2000/svg">
  <path
     style="fill:var(--foreground-color);"
     d="m 31.992188,10.818681 c -8.235482,1e-6 -16.47136,3.135317 -22.7424489,9.406405 a 2.1385787,2.1385787 0 0 0 0,3.025755 2.1385787,2.1385787 0 0 0 3.0240839,0 c 10.907669,-10.90767 28.529059,-10.907669 39.436729,0 a 2.1385787,2.1385787 0 0 0 3.024084,0 2.1385787,2.1385787 0 0 0 0,-3.025755 C 48.463547,13.953999 40.22767,10.818681 31.992188,10.818681 Z m 0,8.101538 c -6.162338,0 -12.324064,2.344585 -17.013397,7.033919 a 2.1385787,2.1385787 0 0 0 0,3.024084 2.1385787,2.1385787 0 0 0 3.024084,0 c 7.744159,-7.744159 20.234465,-7.744159 27.978625,0 a 2.1385787,2.1385787 0 0 0 3.024084,0 2.1385787,2.1385787 0 0 0 0,-3.024084 C 44.316251,21.264805 38.154526,18.920219 31.992188,18.920219 Z m 0,8.231858 c -4.055656,0 -8.112136,1.541018 -11.194124,4.623006 a 2.1385787,2.1385787 0 0 0 0,3.024084 2.1385787,2.1385787 0 0 0 3.025755,0 c 4.529469,-4.52947 11.807268,-4.529469 16.336737,0 a 2.1385787,2.1385787 0 0 0 3.025755,0 2.1385787,2.1385787 0 0 0 0,-3.024084 C 40.104323,28.693095 36.047843,27.152076 31.992188,27.152077 Z m 0.0067,8.111562 a 8.9281403,8.9281403 0 0 0 -8.928567,8.928566 8.9281403,8.9281403 0 0 0 8.928567,8.928566 8.9281403,8.9281403 0 0 0 8.926895,-8.928566 8.9281403,8.9281403 0 0 0 -8.926895,-8.928566 z m -5.76748,8.691318 h 11.53496 a 0.78479571,0.78479571 0 0 1 0.785258,0.78526 c 0,2.339711 -1.250118,4.504059 -3.276369,5.673916 -2.02625,1.169856 -4.526488,1.169856 -6.552739,0 -2.02625,-1.169857 -3.276369,-3.334205 -3.276369,-5.673916 a 0.78479571,0.78479571 0 0 1 0.785259,-0.78526 z" />
</svg>
