<?xml version="1.0" encoding="UTF-8" standalone="no"?>
<svg
   xmlns:dc="http://purl.org/dc/elements/1.1/"
   xmlns:cc="http://creativecommons.org/ns#"
   xmlns:rdf="http://www.w3.org/1999/02/22-rdf-syntax-ns#"
   xmlns:svg="http://www.w3.org/2000/svg"
   xmlns="http://www.w3.org/2000/svg"
   width="64"
   height="64"
   version="1.1"
   viewBox="0 0 48 48"
   id="ford">
  <path
     id="logo"
     style="fill:var(--foreground-color);stroke:none"
     d="m 43.488542,17.71646 c -0.0565,-0.164972 -0.1823,-0.472548 -0.391115,-0.679756 -0.190424,-0.188559 -0.40937,-0.255057 -0.700669,-0.300896 -0.284372,-0.0449 -0.67682,-0.07635 -0.986917,-0.09861 -0.337278,-0.02425 -0.6583,-0.04357 -0.876051,-0.01532 -0.275839,0.03598 -0.435635,0.15991 -0.534084,0.414553 -0.08821,0.228138 -0.13566,0.564075 -0.155914,0.743857 -0.02932,0.258917 -0.03945,0.509834 -0.04544,0.659764 l 0.249458,0.01879 -0.249857,-0.0103 v 1.19e-4 c -9.35e-4,0.02332 -0.0016,0.04331 -0.0021,0.06063 -0.01492,0.0046 -0.03558,0.01018 -0.05984,0.01639 -0.256786,-0.165509 -0.523308,-0.218542 -0.795811,-0.242132 -0.299965,-0.854863 -0.867382,-2.215396 -1.319905,-3.236566 -0.514507,-1.160796 -0.76023,-1.602948 -1.010763,-1.97462 -0.26465,-0.392175 -0.546882,-0.714517 -0.816211,-0.932267 -0.275843,-0.223208 -0.520103,-0.322085 -0.874445,-0.426561 -0.310089,-0.09155 -0.757979,-0.206284 -2.156926,-0.41029 -1.054736,-0.153912 -3.249631,-0.473877 -8.761839,-0.473877 -5.512208,0 -7.707035,0.319819 -8.76184,0.473604 -1.398947,0.204019 -1.846693,0.318755 -2.156653,0.410289 -0.354478,0.10447 -0.598734,0.20335 -0.874581,0.426562 -0.269179,0.217743 -0.551418,0.540093 -0.816212,0.932403 -0.250525,0.371536 -0.496255,0.813688 -1.010763,1.974485 -0.4525564,1.021305 -1.0199396,2.381703 -1.319904,3.236565 -0.272513,0.02359 -0.5390351,0.07662 -0.7958125,0.242132 -0.024523,-0.0063 -0.045171,-0.01186 -0.059697,-0.01613 -6.684e-4,-0.01745 -0.00117,-0.03757 -0.00211,-0.06103 l -6.672e-4,-0.01586 c -0.00609,-0.148849 -0.016387,-0.397633 -0.045311,-0.652566 -0.02025,-0.179897 -0.067692,-0.515702 -0.1559122,-0.743856 -0.098477,-0.254654 -0.2583857,-0.378598 -0.5342247,-0.414553 -0.2172107,-0.02839 -0.5383529,-0.0089 -0.875911,0.01532 -0.3100893,0.02239 -0.7026801,0.0537 -0.9869178,0.09861 -0.2914359,0.04584 -0.5103797,0.112337 -0.7008039,0.301029 -0.2085492,0.206816 -0.3344778,0.514507 -0.3911172,0.679619 -0.085817,0.250925 -0.1300596,0.510925 -0.1213979,0.713324 0.010266,0.241329 0.096478,0.418818 0.2631827,0.542344 0.153247,0.113671 0.3496683,0.165374 0.724786,0.190425 0.1589779,0.01077 0.3586062,0.0172 0.5662239,0.02372 0.2346668,0.0075 0.4799842,0.01519 0.6859988,0.03039 0.3677829,0.02732 0.6008497,0.07889 0.8581714,0.153247 0.019989,0.0057 0.040244,0.01253 0.060498,0.01852 l -0.00599,0.01135 C 6.5342611,21.182961 6.2945081,21.606725 6.132603,21.9829 5.9521705,22.402127 5.8872753,22.724471 5.8552935,23.361993 5.8234455,23.994159 5.8258435,24.946042 6.259988,28.2478 v 8.203052 c 0,0.396985 0.322749,0.719737 0.7197371,0.719737 h 3.8436239 c 0.396985,0 0.719874,-0.322749 0.719874,-0.719737 v -2.285775 h 24.914136 v 2.285775 c 0,0.396985 0.322749,0.719737 0.719737,0.719737 h 3.843622 c 0.396984,0 0.719738,-0.322749 0.719738,-0.719737 v -8.203038 c 0.434171,-3.30186 0.436557,-4.253674 0.404559,-4.885807 -0.03198,-0.637522 -0.09687,-0.959866 -0.277307,-1.379229 -0.161912,-0.376038 -0.401525,-0.799802 -1.410549,-2.583453 l -0.0062,-0.011 c 0.02025,-0.006 0.04037,-0.01279 0.06049,-0.01852 0.257319,-0.07435 0.490659,-0.125928 0.858169,-0.153247 0.20602,-0.01532 0.451329,-0.02292 0.686136,-0.03039 0.207615,-0.0066 0.407255,-0.01292 0.566224,-0.02371 0.375255,-0.02532 0.571682,-0.07689 0.724652,-0.190291 0.166702,-0.12353 0.252921,-0.301028 0.263179,-0.542481 0.0088,-0.202419 -0.03531,-0.462551 -0.121129,-0.713324 z m -31.233413,5.573544 c 0.361404,0.02265 0.868031,0.05944 1.095913,0.119001 0.0089,0.0021 0.01679,0.0046 0.02386,0.0066 -0.01532,0.0573 -0.06397,0.161509 -0.235332,0.342197 -0.245327,0.258254 -0.688147,0.620193 -0.974501,0.820852 -0.289171,0.202418 -0.407252,0.233735 -0.590581,0.252925 -0.235734,0.02505 -0.548212,0.01532 -0.98436,-0.02972 C 10.145584,24.755975 9.5202057,24.666289 9.0338085,24.578738 8.5991281,24.500652 8.3164935,24.431223 8.1569773,24.307958 8.0138579,24.197354 7.9376337,24.013193 7.8670081,23.770799 7.7934515,23.518676 7.733349,23.230843 7.706031,23.00071 7.680045,22.782033 7.699591,22.721801 7.693366,22.721801 c -2.774e-4,0 -6.672e-4,0 -9.341e-4,2.78e-4 0.00234,-0.0015 0.059967,-0.02985 0.2785108,0.0052 0.1164685,0.01879 0.2421305,0.04904 0.3993723,0.08662 0.1190004,0.02839 0.2550567,0.0609 0.4168391,0.09595 0.5167586,0.112208 1.0425923,0.196289 1.5625919,0.249858 0.470124,0.04851 0.99357,0.07796 1.455166,0.103943 0.15791,0.009 0.309558,0.01759 0.450271,0.02638 z M 24.000238,12.621875 c 4.445737,0 6.697602,0.142719 8.162457,0.267047 1.543249,0.130992 2.117592,0.232269 2.508436,0.322484 0.433487,0.09981 0.676549,0.200153 0.86711,0.357412 0.212148,0.1751 0.38177,0.443618 0.533441,0.707865 0.154979,0.269849 0.34339,0.625651 0.669896,1.394138 0.386307,0.909341 0.727856,1.843895 1.043274,2.83999 H 34.75471 c -0.985963,0 -1.318062,0 -1.568698,-0.03425 -0.233869,-0.03198 -0.409232,-0.09408 -0.632439,-0.173101 -0.228936,-0.08088 -0.455592,-0.15831 -0.713051,-0.216944 -0.287704,-0.06556 -0.593276,-0.09981 -1.550856,-0.118065 -0.978254,-0.01852 -2.642777,-0.01852 -6.289598,-0.01852 -3.646821,0 -5.311209,0 -6.289599,0.01826 -0.957579,0.01826 -1.263002,0.0525 -1.550719,0.118065 -0.257589,0.05877 -0.484248,0.13619 -0.733315,0.224006 -0.203084,0.07196 -0.378324,0.134058 -0.612312,0.16604 -0.250659,0.03425 -0.582735,0.03425 -1.568698,0.03425 h -3.030142 c 0.315555,-0.996095 0.656967,-1.930648 1.043275,-2.839991 0.32648,-0.768486 0.514916,-1.124295 0.669896,-1.394136 0.151647,-0.264118 0.321152,-0.532622 0.533577,-0.708003 0.190291,-0.157112 0.433349,-0.257321 0.866973,-0.357276 0.390844,-0.09009 0.965187,-0.191492 2.508437,-0.322482 1.465161,-0.124063 3.717061,-0.266782 8.162456,-0.266782 z m 11.745109,10.668129 c 0.02665,-0.0016 0.05544,-0.0033 0.08288,-0.0049 l 0.594744,-0.03425 c 0.40217,-0.02305 0.832996,-0.05011 1.228241,-0.09088 0.519965,-0.05344 1.045798,-0.137657 1.562592,-0.249858 0.161775,-0.03505 0.297831,-0.06756 0.416838,-0.09595 0.157245,-0.03744 0.282909,-0.06769 0.399374,-0.08662 0.09222,-0.01493 0.155646,-0.01839 0.197353,-0.01839 0.04784,0 0.0665,0.0044 0.06863,0.0021 0.0066,0.01519 0.02398,0.07863 -0.0011,0.289836 -0.02719,0.229339 -0.08742,0.517305 -0.16098,0.769953 -0.07063,0.242531 -0.147116,0.426562 -0.290101,0.537159 -0.159509,0.123264 -0.44215,0.19269 -0.876831,0.27078 -0.362189,0.06516 -0.801134,0.131393 -1.185325,0.18003 l -0.649224,0.06769 c -0.294898,0.02225 -0.524366,0.02398 -0.706126,0.0049 -0.183496,-0.01933 -0.301697,-0.05051 -0.590718,-0.252924 -0.286503,-0.200819 -0.729186,-0.562746 -0.974364,-0.820852 -0.166039,-0.174967 -0.216945,-0.278108 -0.234268,-0.342607 0.0067,-0.002 0.01426,-0.0041 0.02265,-0.0062 0.227607,-0.05957 0.734373,-0.09635 1.095777,-0.119 z m -20.833078,0.665633 c 0.275576,-0.319287 0.474798,-0.549952 1.234517,-0.736385 0.864722,-0.212281 2.426903,-0.335276 7.853384,-0.335276 5.426479,0 6.988594,0.122998 7.853384,0.335276 0.759958,0.186563 0.959183,0.417351 1.250482,0.754773 0.28957,0.335541 0.617771,0.715711 0.918281,1.151756 0.455729,0.661505 0.543299,1.011173 0.536512,1.187986 -0.01054,0.277442 -0.309026,0.43161 -0.55756,0.511983 -0.380849,0.123131 -0.893105,0.146851 -2.342677,0.159909 -1.507805,0.01359 -4.087539,0.01359 -7.658251,0.01359 -3.570712,0 -6.150414,0 -7.658252,-0.01359 -1.449572,-0.01306 -1.961828,-0.03678 -2.342677,-0.159909 -0.248527,-0.08036 -0.547018,-0.2344 -0.557559,-0.511983 -0.0068,-0.176966 0.08076,-0.526515 0.536375,-1.187986 0.301028,-0.436694 0.629641,-0.817405 0.934143,-1.170144 z M 8.76902,30.937409 c 0.035046,-0.168439 0.1055474,-0.4107 0.2410629,-0.857252 0.1092697,-0.360449 0.2921007,-0.963993 0.4743898,-1.251574 0.1269951,-0.200287 0.2281366,-0.232401 0.5356923,-0.245993 0.322749,-0.01466 0.753305,-0.004 1.211455,0.02972 0.553296,0.04024 1.00343,0.102341 1.267676,0.174435 0.26958,0.0737 0.339141,0.156178 0.408038,0.264384 0.08795,0.138322 0.167506,0.33008 0.24453,0.515838 l 0.0517,0.124062 c 0.0054,0.01279 0.01054,0.02532 0.01586,0.03798 0,1.19e-4 1.19e-4,2.79e-4 1.19e-4,5.33e-4 0.06982,0.166971 0.136722,0.329279 0.208417,0.53518 0.10248,0.293569 0.127926,0.474253 0.07556,0.537023 -0.09741,0.116995 -0.526516,0.164573 -0.667612,0.180162 -0.241063,0.02665 -0.335811,0.03452 -0.906034,0.03824 -0.56155,0.0036 -1.575896,0.0036 -2.2247441,0.0036 h -0.00281 c -0.4857148,0 -0.8023617,0 -0.9446511,-0.02572 0.00258,-0.01572 0.00597,-0.03544 0.011354,-0.06063 z m 6.70033,-0.267182 c -0.125263,-0.161376 -0.24746,-0.360995 -0.365805,-0.55408 l -0.02918,-0.0477 c -0.131394,-0.214276 -0.267315,-0.435874 -0.4748,-0.560629 -0.04438,-0.02665 -0.08929,-0.04663 -0.138055,-0.0633 h 19.07757 c -0.04878,0.01653 -0.09382,0.03665 -0.138321,0.06343 -0.207348,0.124594 -0.343256,0.346189 -0.474663,0.560492 l -0.02918,0.04771 c -0.118334,0.192956 -0.24053,0.392584 -0.365805,0.55408 -0.125396,0.161642 -0.235867,0.262917 -0.460402,0.334743 -0.271312,0.08675 -1.077252,0.122196 -8.070349,0.122196 -6.993029,0 -7.799142,-0.03544 -8.070348,-0.122196 -0.224272,-0.07196 -0.334877,-0.173101 -0.460402,-0.334743 z m 19.027765,0.131393 c -0.05237,-0.06276 -0.02692,-0.243461 0.07556,-0.537158 0.07169,-0.205748 0.138588,-0.368056 0.208415,-0.535044 0,-1.19e-4 1.2e-4,-2.79e-4 1.2e-4,-5.33e-4 0.0054,-0.01266 0.01053,-0.02519 0.01586,-0.03798 l 0.0517,-0.123929 c 0.07702,-0.185761 0.156577,-0.377643 0.244662,-0.515974 0.06876,-0.108334 0.138322,-0.19069 0.407901,-0.264384 0.26425,-0.07209 0.714382,-0.13419 1.267676,-0.174435 0.458151,-0.03358 0.888295,-0.04411 1.211593,-0.02972 0.307425,0.01359 0.408584,0.04584 0.535556,0.245992 0.182161,0.28704 0.365122,0.89082 0.474525,1.251575 0.135392,0.447064 0.206019,0.689478 0.240931,0.857387 0.0054,0.02545 0.0089,0.04544 0.01135,0.06103 -0.136722,0.02505 -0.454808,0.02505 -0.944787,0.02505 -0.648847,0 -1.665172,0 -2.227541,-0.0036 -0.570215,-0.0036 -0.66495,-0.01159 -0.905897,-0.03824 -0.140987,-0.01546 -0.570216,-0.0629 -0.667612,-0.180029 z" />
</svg>
