<?xml version="1.0" encoding="UTF-8" standalone="no"?>
<svg
   xmlns:dc="http://purl.org/dc/elements/1.1/"
   xmlns:cc="http://creativecommons.org/ns#"
   xmlns:rdf="http://www.w3.org/1999/02/22-rdf-syntax-ns#"
   xmlns:svg="http://www.w3.org/2000/svg"
   xmlns="http://www.w3.org/2000/svg"
   id="svg2565"
   version="1.1"
   viewBox="0 0 64 64"
   height="64"
   width="64">
  <path
     d="M 37.429787,37.815022 33.32602,32.202754 q -0.486613,-0.665037 -0.794801,-1.200311 h -0.03244 q 0.04866,0.859682 0.04866,1.93023 v 4.882349 H 29.303354 V 26.184976 h 3.308967 l 3.933453,5.33652 q 0.07299,0.105433 0.178425,0.251417 0.105433,0.145984 0.210865,0.300078 0.105433,0.154094 0.194646,0.300078 0.09732,0.145983 0.145983,0.259526 h 0.03244 q -0.04866,-0.356849 -0.04866,-1.232752 v -5.214867 h 3.244085 v 11.630046 z m -13.933345,0 V 26.184976 h 3.503612 V 37.815022 Z M 19.992188,11.201172 7.9824219,32 19.992188,52.798828 h 24.015624 l 0.50586,-0.875 L 56.017578,32 44.007812,11.201172 Z m 2.019531,3.5 H 41.988281 L 51.976562,32 41.988281,49.298828 H 22.011719 L 12.023438,32 Z"
     style="fill:var(--foreground-color);"
     id="path6836" />
</svg>
