<svg
   width="64"
   height="64"
   version="1.1"
   xmlns="http://www.w3.org/2000/svg"
   xmlns:svg="http://www.w3.org/2000/svg">
  <g>
    <path
       style="fill:var(--foreground-color);"
       d="M 19.076822,9.6179858 6.1536397,32 19.076822,54.382014 H 44.923178 L 57.84636,32 44.923178,9.6179858 Z M 18.65284,24.47819 h 4.195814 v 5.169024 h 1.966488 l 5.291289,-5.169024 h 5.707608 l -7.407422,6.878888 8.278435,7.188515 h -5.935914 l -6.04719,-5.401741 h -1.853294 v 5.401741 H 18.65284 Z m 25.096218,4.003481 c 2.64603,0 3.685483,1.16544 3.685483,3.904871 0,0.252589 -0.01959,0.523954 -0.03824,0.873666 h -3.136787 c 0,-1.262857 -0.282857,-1.863689 -1.738182,-1.863689 -1.247415,0 -2.118055,0.485273 -2.118055,1.670418 v 5.478656 H 36.77535 v -9.90812 h 3.401544 v 1.883407 h 0.03824 c 0.41582,-1.573715 1.889605,-2.039209 3.533924,-2.039209 z" />
  </g>
</svg>
