<svg
   width="64"
   height="64"
   version="1.1"
   xmlns="http://www.w3.org/2000/svg"
   xmlns:svg="http://www.w3.org/2000/svg">
   <g>
      <path
         style="fill:var(--foreground-color);"
         d="M 13.268845,8.629064 6.435778,24.289067 c 0,0 9.61978,9.654214 21.638695,11.530355 3.809228,0.594618 6.304024,-2.279675 5.671866,-4.785414 -0.226418,-0.897476 -0.375063,-1.076898 -0.976359,-1.48066 -0.528863,-0.355122 -1.877069,-0.328532 -1.877069,-0.328532 l -0.02155,0.03337 c -0.07859,-0.247168 -0.400139,-1.397034 0.388957,-1.503826 1.889328,-0.255689 3.075752,1.94915 2.88453,3.743121 C 32.520092,46.740061 21.08637,55.370936 21.08637,55.370936 l 16.9785,-1.912381 c 0,0 3.551028,-13.158008 -0.833641,-24.504761 -1.38966,-3.596199 -5.126359,-4.319725 -6.980315,-2.51939 -0.664026,0.644823 -0.745093,0.863341 -0.794113,1.585958 -0.03578,0.527481 0.417985,1.374793 0.580275,1.660478 -0.213855,0.228795 -1.007185,1.000814 -1.476447,0.393816 -1.166097,-1.508362 0.150072,-3.638509 1.79931,-4.36989 14.012833,-6.214208 27.204283,-0.627742 27.204283,-0.627742 L 47.418785,11.329404 c 0,0 -13.170644,3.503958 -20.804884,12.974567 -2.419568,3.001583 -1.177658,6.599236 1.308456,7.304643 0.890447,0.252653 1.119997,0.213718 1.770312,-0.105137 0.536789,-0.263192 1.123277,-1.285917 1.195868,-1.414888 l 0.0473,0.05929 c 0,0 1.501214,0.274907 1.16282,1.100289 -0.72323,1.764048 -3.225991,1.689199 -4.684004,0.626608 C 15.026571,22.846406 13.268845,8.629064 13.268845,8.629064 Z m 34.181044,5.911137 4.767757,6.338002 -5.345118,0.237651 -4.037795,-5.471638 z m -35.14412,0.818575 2.878377,4.510181 -2.71962,6.232703 -3.2637691,-3.444882 z m 28.870592,0.845791 3.719306,5.026144 -3.968621,0.482753 -3.12688,-4.239321 z m -4.766623,1.89991 2.859584,3.797553 -3.029518,0.647342 -2.340378,-3.174022 z m -3.554061,1.814538 2.149379,2.929081 -2.198627,0.680229 -1.91692,-2.277851 z m -16.583553,1.604587 2.402426,3.195569 -2.107915,4.827535 -2.787658,-2.289029 z m 13.927599,0.277341 1.746498,2.063204 -1.493134,0.743245 -1.586444,-1.739532 z m -1.804332,1.562955 1.490218,1.577372 -1.027876,0.794599 -1.500748,-1.342961 z m -1.380383,1.525371 1.493134,1.260019 -0.47109,0.792007 -1.688179,-0.88224 z m 5.731482,1.062867 -0.743894,1.181937 -0.230199,-0.05346 0.267621,-1.099965 z m 0.550631,0.05848 0.757824,0.252716 -1.136737,1.215632 -0.423624,-0.184029 z m -13.630495,0.04989 2.075353,2.299883 -1.578506,3.613847 -2.355773,-1.538493 z m 11.921417,0.128788 -0.207032,0.95028 -0.126197,0.03046 -0.343597,-0.730772 z m -5.40619,0.348134 1.65173,0.901356 -0.193587,0.817278 -1.753465,-0.413742 z m 8.348552,0.01717 0.982516,0.90816 -1.606529,0.979925 -0.610891,-0.57655 z m -3.845499,0.110159 0.287222,0.701289 -0.159244,0.09849 -0.529571,-0.407424 z m -0.586432,0.610246 0.520337,0.340681 -0.06642,0.202011 -0.59113,-0.162484 z m 5.745245,0.571528 0.680068,1.161848 -1.837866,0.663219 -0.45035,-0.804157 z m -5.992778,0.04244 0.641188,0.130408 -0.01215,0.114857 -0.621748,0.06771 z m 0.62272,0.415849 0.01912,0.168802 -0.537671,0.2417 -0.06253,-0.30083 z m -4.601548,0.09509 1.621112,0.376646 0.05232,0.458777 -1.513383,-0.05281 z m 4.6171,0.248991 0.06512,0.152278 -0.485184,0.270212 -0.07419,-0.156489 z m 0.06869,0.317192 0.06318,0.16621 -0.437394,0.239432 -0.08375,-0.128141 z m 0.06853,0.277664 0.09461,0.15811 -0.350077,0.173824 -0.06788,0.01037 -0.07144,-0.11437 z m -8.008361,0.03661 1.688502,1.563927 -1.014268,2.798998 -2.136103,-1.036948 z m 8.507638,0.218212 v 0.456023 l -0.184191,0.0029 0.02835,-0.45327 z m 0.263408,0 0.01134,0.535402 -0.175606,-0.02835 0.01134,-0.49863 z m 5.39355,0.05427 0.371947,1.413754 -2.111158,0.50187 -0.174307,-1.287397 z m -5.229122,0.0052 0.17269,0.01409 -0.01685,0.560998 -0.164427,-0.01976 z m 0.365467,0.07938 0.291758,0.09623 -0.195531,0.558082 -0.155842,-0.06788 z m -5.662309,0.05119 1.395611,0.05314 0.06885,0.226149 -1.086357,0.318163 z m 6.155269,0.121499 0.274748,0.150172 -0.433506,0.490206 -0.09347,-0.06804 z m -2.209003,0.0049 0.216592,0.01085 0.21578,0.143207 -0.07306,0.137698 -0.39495,-0.227931 z m -0.129436,0.12409 0.426216,0.259197 -0.06917,0.136726 -0.469308,-0.257901 z m -0.253364,0.223395 0.476759,0.285116 -0.09866,0.142558 -0.477407,-0.29516 z m 3.013807,0.01037 0.260654,0.308767 -0.555166,0.280419 -0.141748,-0.158596 z m -4.86609,0.104489 0.08958,0.09412 -0.461207,0.662895 -0.554843,-0.461045 z m 1.599566,0.10222 0.478056,0.344893 -0.229227,0.204604 -0.385555,-0.448411 z m -1.198945,0.138832 0.164913,0.08861 -0.08813,0.662409 -0.540426,-0.151792 z m 0.911399,0.04196 0.369517,0.504623 -0.267458,0.162808 -0.207843,-0.620452 z m -0.310387,0.09558 0.154707,0.593236 -0.397704,0.07128 0.03483,-0.620938 z m 4.2215,0.09477 0.138832,0.543988 -0.75086,-0.101896 -0.0057,-0.187107 z m -8.163555,0.670671 1.390265,0.921444 -0.713277,2.243669 -1.590494,-0.620938 z m 7.579877,0.114208 0.804644,0.06788 -0.121823,0.711171 -0.719594,-0.654471 z m 4.741022,0.08716 0.257575,1.687856 -2.660167,0.480971 0.10287,-1.66469 z m -4.922297,0.405804 0.818736,0.781802 -0.328531,0.626121 -0.651718,-1.235232 z m -0.546743,0.518394 0.711008,1.337129 -0.597772,0.529897 -0.484373,-1.592278 z m -4.88877,0.120526 1.202023,0.492797 -0.412608,1.971191 -1.410352,-0.384746 z m 3.99357,0.287384 0.518393,1.725277 -1.277677,0.396733 -0.04536,-1.881119 z m -2.258735,0.301478 0.921605,0.01199 0.08003,1.903152 -1.346202,0.0081 z m 9.012254,0.92695 0.170097,2.36841 -3.611411,0.397057 0.510288,-2.24432 z m 0.119068,3.544189 -0.154545,2.809367 -4.718503,0.577846 0.954003,-2.947225 z m -0.303908,4.328743 -0.588536,3.558768 -6.212448,0.707771 1.566195,-3.678326 z m -0.932458,5.274972 -1.351549,4.549061 -7.872761,0.960001 2.46674,-4.747832 z" />
   </g>
</svg>
