<svg
   width="64"
   height="64"
   version="1.1"
   xmlns="http://www.w3.org/2000/svg"
   xmlns:svg="http://www.w3.org/2000/svg">
  <g>
    <path
       style="fill:var(--foreground-color);"
       d="m 33.789543,9.6567798 c -0.242138,2.0824042 -3.171496,3.5421932 -4.421734,4.9646782 0,0 -4.631377,3.415742 -4.586788,7.822732 0.05431,5.365778 5.774576,7.043313 7.505654,7.02352 1.778015,-0.02046 6.151614,-3.006389 7.362317,-7.1712 C 40.650624,18.850888 33.789543,9.6567798 33.789543,9.6567798 Z M 32.547287,14.36953 c 0,0 3.306448,4.431999 2.823309,6.094002 -0.583982,2.008902 -2.69105,3.447641 -3.548682,3.457464 -0.834985,0.0096 -3.596325,-0.799776 -3.62252,-3.387967 -0.02157,-2.12572 2.215211,-3.770203 2.215211,-3.770203 0.603049,-0.686132 2.015889,-1.388844 2.132682,-2.393296 z m -9.542778,16.045073 c 1.847189,3.812477 4.156449,7.295954 7.705456,9.264793 v 3.544337 H 27.113507 V 45.5345 h 3.596458 v 8.80872 h 1.290036 1.290034 V 45.5345 h 3.596458 v -2.310767 h -3.596458 v -3.544337 c 3.549007,-1.968839 5.858267,-5.452316 7.705456,-9.264793 h -8.99549 z" />
  </g>
</svg>
