<svg
   width="64"
   height="64"
   version="1.1"
   xmlns="http://www.w3.org/2000/svg"
   xmlns:svg="http://www.w3.org/2000/svg">
   <g>
      <path
         style="fill:var(--foreground-color);"
         d="m 11.460851,13.369214 c -0.625763,-0.274126 -1.015059,0.04685 -0.865296,0.712906 l 8.068796,35.954881 c 0.149762,0.666051 0.729546,0.890695 1.288748,0.499209 l 9.47096,-6.63116 c 0.559202,-0.391924 1.328597,-0.248291 1.709573,0.318355 l 3.092468,4.59973 c 0.380539,0.566646 0.886316,0.506216 1.123659,-0.133998 l 3.818513,-10.299035 c 0.237343,-0.640214 0.08101,-0.729546 -0.348571,-0.198369 l -1.370198,1.697748 c -0.429145,0.531177 -1.338669,0.976962 -2.020921,0.991412 l -0.491327,0.0097 c -0.68269,0.01401 -1.588274,-0.411629 -2.012601,-0.946746 L 17.491647,20.485572 c -0.424327,-0.535117 -0.32974,-0.630142 0.209756,-0.212383 l 20.9173,16.193206 c 0.539497,0.417759 1.507699,0.572777 2.150979,0.343753 l 12.174573,-4.333485 c 0.643278,-0.228585 0.658167,-0.640214 0.03241,-0.91434 z" />
   </g>
</svg>
