<?xml version="1.0" encoding="UTF-8" standalone="no"?>
<svg
   xmlns:dc="http://purl.org/dc/elements/1.1/"
   xmlns:cc="http://creativecommons.org/ns#"
   xmlns:rdf="http://www.w3.org/1999/02/22-rdf-syntax-ns#"
   xmlns:svg="http://www.w3.org/2000/svg"
   xmlns="http://www.w3.org/2000/svg"
   id="svg8"
   version="1.1"
   height="64"
   width="64"
   viewBox="0 0 64 64">
  <path
     style="fill:var(--foreground-color);stroke-width:0.09214092"
     d="m 44.915393,15.56897 c 1.452141,-1.96168 4.304825,-2.26758 6.165151,-0.58602 1.605094,1.47795 1.732249,3.97404 0.433062,5.73209 l -8.38114,11.23382 8.431817,11.3361 c 1.299188,1.75805 1.196911,4.25414 -0.433063,5.73209 -1.859403,1.68156 -4.713008,1.37566 -6.165149,-0.58602 L 33.22271,32.58556 c -0.280108,-0.38239 -0.280108,-0.9168 0,-1.2992 z m -25.830786,0 c -1.452141,-1.96168 -4.304825,-2.26758 -6.165151,-0.58602 -1.605094,1.47795 -1.732249,3.97404 -0.433062,5.73209 l 8.38114,11.23382 -8.431817,11.3361 c -1.299188,1.75805 -1.196911,4.25414 0.433063,5.73209 1.859403,1.68156 4.713008,1.37566 6.165149,-0.58602 l 11.76916,-15.81967 c 0.280108,-0.38238 0.280108,-0.91681 0,-1.29919 z"
     id="path832" />
</svg>
