<svg
   width="64"
   height="64"
   version="1.1"
   xmlns="http://www.w3.org/2000/svg"
   xmlns:svg="http://www.w3.org/2000/svg">
  <path
     style="fill:var(--foreground-color);"
     d="m 10.769429,11.457444 c 1.116203,1.35039 2.268725,2.668764 3.46285,3.95005 1.506274,1.681279 3.432988,3.607623 5.70972,5.884771 l 6.304702,6.095137 c -4.413872,6.794695 -8.687325,12.679529 -12.925327,17.688822 -2.671421,3.166109 -5.0759992,5.708395 -7.2482337,7.664054 1.9320922,-1.103526 3.7437798,-2.176597 5.4123977,-3.223836 7.811008,-4.869276 14.851604,-10.438215 21.191299,-16.708823 6.445168,5.709732 13.590382,11.104038 21.401877,16.252896 1.65851,1.072405 3.456889,2.195806 5.337173,3.347523 C 55.15878,48.232875 51.349238,43.951349 47.928505,39.540945 45.651291,36.598802 42.745037,32.535341 39.172026,27.351006 41.862149,24.824499 46.873176,19.565303 54.074938,11.758068 52.560646,12.881251 50.67032,14.030842 48.371223,15.197463 44.76322,17.088744 39.543837,19.295494 32.67819,21.921758 28.965203,20.486336 26.478467,19.50547 25.322179,19.049575 22.415507,17.894141 19.963358,16.808324 17.897076,15.75746 15.08128,14.367846 12.710908,12.930788 10.769429,11.457444 Z" />
</svg>
