<svg
   width="64"
   height="64"
   version="1.1"
   xmlns="http://www.w3.org/2000/svg"
   xmlns:svg="http://www.w3.org/2000/svg">
   <g>
      <path
         style="fill:var(--foreground-color);"
         d="m 43.684517,11.827525 c -3.077519,-0.01651 -3.218567,0.01441 -4.230469,0.925781 -1.101901,0.992431 -0.851125,0.94364 -3.929687,0.767578 C 31.80191,13.308003 31.619256,13.296866 30.032173,13.188853 26.282842,12.933684 14.488492,12.283789 12.508736,12.224009 l -0.708985,-0.02148 -0.257812,0.75 c -0.220994,0.641725 -0.25332,0.862124 -0.21875,1.521484 0.0452,0.862041 0.26484,1.729193 0.505859,2 0.156621,0.175977 0.256455,0.172982 5.308594,-0.130859 2.831851,-0.170312 7.062164,-0.420773 9.400391,-0.556641 2.338224,-0.135869 5.929979,-0.346522 7.982421,-0.46875 4.239939,-0.252501 3.948113,-0.283988 4.88086,0.525391 0.813603,0.705991 1.493597,1.091026 2.046875,1.160156 0.970928,0.121309 5.20253,-0.233116 9.085937,-0.761718 3.198539,-0.43538 2.660217,-0.5585 -1.84375,-0.419922 -1.792448,0.05515 -3.735757,0.101433 -4.320312,0.101562 -1.06023,3.49e-4 -1.064453,-0.0014 -1.064453,-0.228516 0,-0.269467 -0.09757,-0.258677 4.394531,-0.484374 2.906301,-0.146022 4.859957,-0.289645 4.935547,-0.365235 0.104498,-0.104502 -0.860472,-0.142623 -4.804688,-0.189453 -2.317825,-0.02752 -4.279145,-0.07663 -4.359375,-0.107422 -0.08023,-0.03079 -0.166806,-0.132502 -0.191406,-0.226562 -0.0549,-0.209928 0.314451,-0.235448 5.552734,-0.392578 3.240909,-0.09722 3.883078,-0.154033 3.712891,-0.324219 -0.02944,-0.02944 -1.961664,-0.114003 -4.292969,-0.189453 -5.512686,-0.178416 -4.99414,-0.13645 -4.99414,-0.421875 V 12.75917 l 4.597656,-0.04883 c 2.528766,-0.02598 4.630972,-0.07822 4.669922,-0.117188 0.03895,-0.03897 0.04809,-0.09253 0.02148,-0.119141 -0.07102,-0.07102 -3.100401,-0.399692 -4.847656,-0.52539 -0.83137,-0.05981 -2.638671,-0.113694 -4.015625,-0.121094 z m -24.386719,9.533203 -2.300781,5.416016 h 5.335937 L 17.518501,38.173228 H 12.102486 L 9.8114697,43.634166 H 31.463814 l 2.347656,-5.460938 h -5.423828 l 1.035156,-2.449219 13.736328,-0.03906 c 2.039075,-0.0061 6.785636,-0.550361 9.158203,-5.125 0.617677,-1.190967 1.120934,-2.443292 1.548828,-3.714844 0.671571,-1.995674 0.289844,-3.676635 -1.107421,-4.478515 -1.126388,-0.646427 -2.619046,-0.989458 -3.900391,-0.990235 z m 13.916016,5.404297 h 9.310547 c 0,0 1.15185,0.05092 1.298828,0.589844 0.02762,0.101284 0.01014,0.276462 -0.0039,0.484375 -0.0669,0.98642 -1.457481,2.403299 -2.947266,2.404297 l -9.13086,0.0078 z M 11.848579,47.585338 c -0.526533,0.01407 -0.537109,0.155795 -0.537109,0.523437 0,0.781858 0.516617,1.322515 1.847656,1.9375 1.461373,0.675196 4.271558,1.351961 6.72461,1.619141 2.344161,0.255318 6.030078,0.509378 7.40625,0.509765 h 1.060547 l 0.208984,-0.382812 c 0.491482,-0.890006 1.296333,-0.918439 13.080078,-0.486328 4.882127,0.179028 9.277957,0.324218 9.769531,0.324218 h 0.894531 l 0.132813,-0.476562 c 0.07308,-0.261895 0.152744,-0.55648 0.177734,-0.65625 0.02515,-0.09977 0.03654,-0.569063 0.02539,-1.042969 -0.0228,-0.968923 -0.21318,-1.505123 -0.603516,-1.699219 -0.27559,-0.137044 -2.212478,-0.151721 -3.71875,-0.02734 -0.573676,0.04737 -3.431345,0.173675 -6.349609,0.279296 -5.898567,0.213496 -12.304253,0.248749 -17.171875,0.09375 -1.654801,-0.05269 -4.457601,-0.138193 -6.228516,-0.189453 -1.770912,-0.05126 -4.068637,-0.157688 -5.105468,-0.236328 -0.795961,-0.06037 -1.297362,-0.09829 -1.613282,-0.08984 z" />
   </g>
</svg>
