<svg
   xmlns:dc="http://purl.org/dc/elements/1.1/"
   xmlns:cc="http://creativecommons.org/ns#"
   xmlns:rdf="http://www.w3.org/1999/02/22-rdf-syntax-ns#"
   xmlns:svg="http://www.w3.org/2000/svg"
   xmlns="http://www.w3.org/2000/svg"
   id="svg831"
   version="1.1"
   viewBox="0 0 64 64"
   height="64"
   width="64">
  <path
     style="fill:var(--foreground-color);fill-opacity:1;stroke:none;stroke-width:0.08832857"
     d="m 19.054877,20.650452 -2.343638,5.519288 h 5.436911 l -4.905576,11.615218 h -5.519288 l -2.3354,5.564595 H 31.45268 l 2.393065,-5.564596 h -5.527526 l 1.054431,-2.496036 14.000044,-0.04119 c 2.078009,-0.0063 6.915493,-0.560741 9.333363,-5.222729 0.629471,-1.213709 1.141463,-2.489412 1.577527,-3.785243 0.684394,-2.03378 0.295374,-3.746517 -1.128571,-4.563709 -1.147896,-0.658769 -2.668899,-1.008332 -3.97471,-1.009124 z m 14.181274,5.506931 h 9.48988 c 0,0 1.172373,0.05214 1.322158,0.601355 0.02815,0.103218 0.01025,0.282382 -0.0041,0.494265 -0.06818,1.005256 -1.484425,2.449711 -3.002657,2.450728 l -9.304531,0.0082 1.499269,-3.554585 z"
     id="path3773" />
</svg>
