<svg
   version="1.1"
   width="64"
   height="64"
   xmlns="http://www.w3.org/2000/svg"
   xmlns:svg="http://www.w3.org/2000/svg">
   <g>
      <path
         style="fill:var(--foreground-color);"
         d="m 5.832,6.509 v 50.9825 h 9.558544 V 6.509 Z m 37.488087,15.235375 c -0.969083,0 -2.029202,0.222713 -3.181624,0.66797 -1.152423,0.432162 -2.507996,1.316577 -4.066386,2.652348 v -3.241216 h -7.072228 v 22.059605 h 7.072228 V 29.110598 c 0.890509,-0.314299 1.721481,-0.537012 2.494128,-0.66797 0.772647,-0.130958 1.663491,-0.196289 2.671861,-0.196289 0.445255,0 1.002032,0.02672 1.669913,0.0791 0.667882,0.05238 1.151916,0.130585 1.453118,0.235352 H 44.99 v -6.737316 c -0.235724,-0.02619 -0.510895,-0.04648 -0.825191,-0.05957 -0.314297,-0.01309 -0.595904,-0.01953 -0.844722,-0.01953 z" />
   </g>
</svg>
