<svg
   width="64"
   height="64"
   viewBox="0 0 64 64"
   version="1.1"
   xmlns="http://www.w3.org/2000/svg"
   xmlns:svg="http://www.w3.org/2000/svg">
  <g>
    <g
       aria-label="TO-DO"
       style="fill:var(--foreground-color);stroke:none">
      <path d="m 12.095969,19.805867 h 6.266458 v 10.926131 h 4.458826 V 19.805867 H 29.08771 V 16.190603 H 12.095969 Z" />
      <path d="m 30.714566,25.630459 c 0,4.257978 2.390092,5.262218 6.407052,5.262218 h 7.150189 c 4.01696,0 6.407051,-1.00424 6.407051,-5.262218 v -4.338317 c 0,-4.257978 -2.390091,-5.262218 -6.407051,-5.262218 h -7.150189 c -4.01696,0 -6.407052,1.00424 -6.407052,5.262218 z m 4.579335,-2.952466 c 0,-1.807632 0.441865,-2.912296 2.791787,-2.912296 h 5.222048 c 2.349922,0 2.791788,1.104664 2.791788,2.912296 v 1.566615 c 0,2.108904 -0.441866,2.912296 -2.55077,2.912296 h -5.704083 c -2.108905,0 -2.55077,-0.803392 -2.55077,-2.912296 z" />
      <path d="m 11.091728,47.809398 h 13.456816 c 4.458826,0 6.02544,-1.46619 6.02544,-5.061369 v -4.418656 c 0,-3.59518 -1.566614,-5.06137 -6.02544,-5.06137 H 11.091728 Z m 4.458826,-10.926131 h 7.913411 c 1.908056,0 2.651194,0.542289 2.651194,2.611024 v 1.96831 c 0,2.068735 -0.743138,2.611025 -2.651194,2.611025 h -7.913411 z" />
      <path d="m 32.94398,42.707859 c 0,4.257978 2.390091,5.262218 6.407052,5.262218 h 7.150189 c 4.01696,0 6.407051,-1.00424 6.407051,-5.262218 v -4.338317 c 0,-4.257978 -2.390091,-5.262218 -6.407051,-5.262218 h -7.150189 c -4.016961,0 -6.407052,1.00424 -6.407052,5.262218 z m 4.579335,-2.952466 c 0,-1.807632 0.441865,-2.912296 2.791787,-2.912296 h 5.222048 c 2.349922,0 2.791788,1.104664 2.791788,2.912296 v 1.566615 c 0,2.108904 -0.441866,2.912296 -2.55077,2.912296 h -5.704084 c -2.108904,0 -2.550769,-0.803392 -2.550769,-2.912296 z" />
    </g>
  </g>
</svg>
