<?xml version="1.0" encoding="UTF-8" standalone="no"?>
<svg
   xmlns:dc="http://purl.org/dc/elements/1.1/"
   xmlns:cc="http://creativecommons.org/ns#"
   xmlns:rdf="http://www.w3.org/1999/02/22-rdf-syntax-ns#"
   xmlns:svg="http://www.w3.org/2000/svg"
   xmlns="http://www.w3.org/2000/svg"
   viewBox="0 0 64 64"
   width="64px"
   height="64px"
   version="1.1"
   id="windowsgaming">
  <path
     id="logo"
     style="fill:var(--foreground-color);stroke:none"
     d="m 21.649033,16.499047 c -0.01701,0.01132 -0.03402,0.02834 -0.05102,0.04535 0.107706,-0.113381 0.260763,-0.232415 0.35713,-0.300438 2.925027,-1.899001 6.303546,-2.913691 10.050527,-2.913691 3.503231,0 6.785384,0.969341 9.5857,2.652932 0.204071,0.119039 0.759599,0.498841 1.043032,0.84463 -2.703946,-2.981715 -10.651404,3.418199 -10.651404,3.418199 -2.743629,-2.120077 -5.271849,-3.565584 -7.153843,-4.081433 -1.575887,-0.430817 -2.664269,-0.06802 -3.180116,0.334451 z m 24.046439,2.817322 c -0.07936,-0.0907 -0.170058,-0.175728 -0.255088,-0.272096 -0.680239,-0.748262 -1.5192,-0.92966 -2.278801,-0.884311 -0.691575,0.221079 -3.877361,1.366148 -7.800072,5.073449 0,0 4.415884,4.296842 7.125503,8.690049 2.703949,4.393212 4.319515,7.845423 3.3275,12.635437 3.015725,-3.316163 4.85237,-7.72071 4.85237,-12.561742 0,-4.892052 -1.881994,-9.353285 -4.971412,-12.680786 z m -6.7457,14.483419 c -1.196087,-1.349141 -2.981714,-3.270816 -5.334206,-5.61764 -0.515848,-0.510177 -1.060038,-1.043033 -1.632574,-1.59856 0,0 -0.861636,0.861636 -1.97836,1.995367 v -0.0057 c -1.43417,1.451176 -3.29349,3.338839 -4.325186,4.444227 -1.836645,1.961355 -7.102826,8.117516 -7.397597,11.569727 0,0 -1.173412,-2.73796 1.400159,-9.052844 1.677923,-4.13245 6.751371,-10.328291 8.871448,-12.352003 0,0 -1.938681,-2.125745 -4.364866,-3.599596 l -0.01701,-0.0057 c 0,0 -0.02834,-0.02268 -0.06802,-0.04535 -1.167744,-0.697246 -2.448859,-1.235767 -3.673289,-1.309461 -1.252773,0.0907 -2.046386,1.009022 -2.046386,1.009022 -3.134767,3.338838 -5.050772,7.828414 -5.050772,12.771483 0,10.311286 8.355598,18.666885 18.672553,18.666885 5.470255,0 10.39065,-2.358161 13.808847,-6.110811 0,-0.0057 -0.391136,-2.465865 -2.902351,-5.997439 C 42.31695,37.733838 40.162861,35.1546 38.949769,33.799791 Z" />
</svg>
