<svg
   xmlns:dc="http://purl.org/dc/elements/1.1/"
   xmlns:cc="http://creativecommons.org/ns#"
   xmlns:rdf="http://www.w3.org/1999/02/22-rdf-syntax-ns#"
   xmlns:svg="http://www.w3.org/2000/svg"
   xmlns="http://www.w3.org/2000/svg"
   width="64"
   height="64"
   version="1.1">
  <g>
    <path
       style="fill:var(--foreground-color);"
       d="m 23.332871,10.737819 0.616716,27.624687 -1.331069,1.330889 H 14.633167 V 53.262181 H 49.366834 V 39.693395 h -8.506028 l -1.170765,-1.298575 6.184021,-20.9051 -4.609568,-4.34966 -3.051447,25.25476 -1.298583,1.298575 h -8.387795 l -1.363379,-1.36337 2.59681,-15.71131 z m 20.969933,31.532148 a 4.8529784,4.8529683 0 0 1 3.65201,4.697964 4.8529784,4.8529683 0 0 1 -4.852955,4.852939 4.8529784,4.8529683 0 0 1 -4.852951,-4.852939 4.8529784,4.8529683 0 0 1 0.726424,-2.547275 z m -24.762716,0.194028 6.207099,2.491534 a 4.8529784,4.8529683 0 0 1 0.442211,2.012402 4.8529784,4.8529683 0 0 1 -4.852953,4.852939 4.8529784,4.8529683 0 0 1 -4.852953,-4.852939 4.8529784,4.8529683 0 0 1 3.056596,-4.503936 z m 17.296977,2.819951 a 4.8529784,4.8529683 0 0 1 0.308002,1.683985 4.8529784,4.8529683 0 0 1 -4.852952,4.852939 4.8529784,4.8529683 0 0 1 -4.852954,-4.852939 4.8529784,4.8529683 0 0 1 0.285813,-1.626287 h 8.969006 z" />
  </g>
</svg>
